{
    "asset" : {
        "generator" : "Khronos glTF Blender I/O v1.3.48",
        "version" : "2.0"
    },
    "scene" : 0,
    "scenes" : [
        {
            "name" : "Scene",
            "nodes" : [
                0
            ]
        }
    ],
    "nodes" : [
        {
            "mesh" : 0,
            "name" : "Cube"
        }
    ],
    "materials" : [
        {
            "doubleSided" : true,
            "emissiveFactor" : [
                0,
                0,
                0
            ],
            "name" : "hubwindowwall",
            "pbrMetallicRoughness" : {
                "baseColorTexture" : {
                    "index" : 0,
                    "texCoord" : 0
                },
                "metallicFactor" : 0,
                "roughnessFactor" : 0.4000000059604645
            }
        }
    ],
    "meshes" : [
        {
            "name" : "Cube",
            "primitives" : [
                {
                    "attributes" : {
                        "POSITION" : 0,
                        "NORMAL" : 1,
                        "TEXCOORD_0" : 2
                    },
                    "indices" : 3,
                    "material" : 0
                }
            ]
        }
    ],
    "textures" : [
        {
            "source" : 0
        }
    ],
    "images" : [
        {
            "bufferView" : 4,
            "mimeType" : "image/png",
            "name" : "hubwindowstuff"
        }
    ],
    "accessors" : [
        {
            "bufferView" : 0,
            "componentType" : 5126,
            "count" : 1087,
            "max" : [
                26.090553283691406,
                45.707340240478516,
                5.837510585784912
            ],
            "min" : [
                -26.090553283691406,
                3.86409854888916,
                -2.3925387859344482
            ],
            "type" : "VEC3"
        },
        {
            "bufferView" : 1,
            "componentType" : 5126,
            "count" : 1087,
            "type" : "VEC3"
        },
        {
            "bufferView" : 2,
            "componentType" : 5126,
            "count" : 1087,
            "type" : "VEC2"
        },
        {
            "bufferView" : 3,
            "componentType" : 5123,
            "count" : 1932,
            "type" : "SCALAR"
        }
    ],
    "bufferViews" : [
        {
            "buffer" : 0,
            "byteLength" : 13044,
            "byteOffset" : 0
        },
        {
            "buffer" : 0,
            "byteLength" : 13044,
            "byteOffset" : 13044
        },
        {
            "buffer" : 0,
            "byteLength" : 8696,
            "byteOffset" : 26088
        },
        {
            "buffer" : 0,
            "byteLength" : 3864,
            "byteOffset" : 34784
        },
        {
            "buffer" : 0,
            "byteLength" : 430038,
            "byteOffset" : 38648
        }
    ],
    "buffers" : [
        {
            "byteLength" : 468688,
            "uri" : "data:application/octet-stream;base64,"
        }
    ]
}
