{
    "asset" : {
        "generator" : "Khronos glTF Blender I/O v1.3.48",
        "version" : "2.0"
    },
    "scene" : 0,
    "scenes" : [
        {
            "name" : "Scene",
            "nodes" : [
                0
            ]
        }
    ],
    "nodes" : [
        {
            "mesh" : 0,
            "name" : "Cube"
        }
    ],
    "materials" : [
        {
            "doubleSided" : true,
            "emissiveFactor" : [
                0,
                0,
                0
            ],
            "name" : "hubwalltopper",
            "pbrMetallicRoughness" : {
                "baseColorTexture" : {
                    "index" : 0,
                    "texCoord" : 0
                },
                "metallicFactor" : 0,
                "roughnessFactor" : 0.5
            }
        }
    ],
    "meshes" : [
        {
            "name" : "Cube.001",
            "primitives" : [
                {
                    "attributes" : {
                        "POSITION" : 0,
                        "NORMAL" : 1,
                        "TEXCOORD_0" : 2
                    },
                    "indices" : 3,
                    "material" : 0
                }
            ]
        }
    ],
    "textures" : [
        {
            "source" : 0
        }
    ],
    "images" : [
        {
            "bufferView" : 4,
            "mimeType" : "image/png",
            "name" : "hubgates"
        }
    ],
    "accessors" : [
        {
            "bufferView" : 0,
            "componentType" : 5126,
            "count" : 695,
            "max" : [
                3.845257520675659,
                1.4943442344665527,
                0.8061102628707886
            ],
            "min" : [
                -3.845257520675659,
                -0.9738902449607849,
                -0.29259005188941956
            ],
            "type" : "VEC3"
        },
        {
            "bufferView" : 1,
            "componentType" : 5126,
            "count" : 695,
            "type" : "VEC3"
        },
        {
            "bufferView" : 2,
            "componentType" : 5126,
            "count" : 695,
            "type" : "VEC2"
        },
        {
            "bufferView" : 3,
            "componentType" : 5123,
            "count" : 1380,
            "type" : "SCALAR"
        }
    ],
    "bufferViews" : [
        {
            "buffer" : 0,
            "byteLength" : 8340,
            "byteOffset" : 0
        },
        {
            "buffer" : 0,
            "byteLength" : 8340,
            "byteOffset" : 8340
        },
        {
            "buffer" : 0,
            "byteLength" : 5560,
            "byteOffset" : 16680
        },
        {
            "buffer" : 0,
            "byteLength" : 2760,
            "byteOffset" : 22240
        },
        {
            "buffer" : 0,
            "byteLength" : 476983,
            "byteOffset" : 25000
        }
    ],
    "buffers" : [
        {
            "byteLength" : 501984,
            "uri" : "data:application/octet-stream;base64,"
        }
    ]
}
