{
    "asset" : {
        "generator" : "Khronos glTF Blender I/O v1.3.48",
        "version" : "2.0"
    },
    "scene" : 0,
    "scenes" : [
        {
            "name" : "Scene",
            "nodes" : [
                0
            ]
        }
    ],
    "nodes" : [
        {
            "mesh" : 0,
            "name" : "Cube"
        }
    ],
    "materials" : [
        {
            "doubleSided" : true,
            "emissiveFactor" : [
                0,
                0,
                0
            ],
            "name" : "hubwindowwall",
            "pbrMetallicRoughness" : {
                "baseColorTexture" : {
                    "index" : 0,
                    "texCoord" : 0
                },
                "metallicFactor" : 0,
                "roughnessFactor" : 0.4000000059604645
            }
        },
        {
            "doubleSided" : true,
            "name" : "hubwindow",
            "pbrMetallicRoughness" : {}
        }
    ],
    "meshes" : [
        {
            "name" : "Cube",
            "primitives" : [
                {
                    "attributes" : {
                        "POSITION" : 0,
                        "NORMAL" : 1,
                        "TEXCOORD_0" : 2
                    },
                    "indices" : 3,
                    "material" : 0
                },
                {
                    "attributes" : {
                        "POSITION" : 4,
                        "NORMAL" : 5,
                        "TEXCOORD_0" : 6
                    },
                    "indices" : 7,
                    "material" : 1
                }
            ]
        }
    ],
    "textures" : [
        {
            "source" : 0
        }
    ],
    "images" : [
        {
            "bufferView" : 4,
            "mimeType" : "image/png",
            "name" : "hubwindowstuff"
        }
    ],
    "accessors" : [
        {
            "bufferView" : 0,
            "componentType" : 5126,
            "count" : 1169,
            "max" : [
                26.090553283691406,
                45.707340240478516,
                5.837510585784912
            ],
            "min" : [
                -26.090553283691406,
                3.86409854888916,
                -2.3925387859344482
            ],
            "type" : "VEC3"
        },
        {
            "bufferView" : 1,
            "componentType" : 5126,
            "count" : 1169,
            "type" : "VEC3"
        },
        {
            "bufferView" : 2,
            "componentType" : 5126,
            "count" : 1169,
            "type" : "VEC2"
        },
        {
            "bufferView" : 3,
            "componentType" : 5123,
            "count" : 2064,
            "type" : "SCALAR"
        },
        {
            "bufferView" : 5,
            "componentType" : 5126,
            "count" : 28,
            "max" : [
                18.497251510620117,
                44.57020950317383,
                0.540691614151001
            ],
            "min" : [
                -18.497251510620117,
                16.322372436523438,
                -0.540691614151001
            ],
            "type" : "VEC3"
        },
        {
            "bufferView" : 6,
            "componentType" : 5126,
            "count" : 28,
            "type" : "VEC3"
        },
        {
            "bufferView" : 7,
            "componentType" : 5126,
            "count" : 28,
            "type" : "VEC2"
        },
        {
            "bufferView" : 8,
            "componentType" : 5123,
            "count" : 48,
            "type" : "SCALAR"
        }
    ],
    "bufferViews" : [
        {
            "buffer" : 0,
            "byteLength" : 14028,
            "byteOffset" : 0
        },
        {
            "buffer" : 0,
            "byteLength" : 14028,
            "byteOffset" : 14028
        },
        {
            "buffer" : 0,
            "byteLength" : 9352,
            "byteOffset" : 28056
        },
        {
            "buffer" : 0,
            "byteLength" : 4128,
            "byteOffset" : 37408
        },
        {
            "buffer" : 0,
            "byteLength" : 430038,
            "byteOffset" : 41536
        },
        {
            "buffer" : 0,
            "byteLength" : 336,
            "byteOffset" : 471576
        },
        {
            "buffer" : 0,
            "byteLength" : 336,
            "byteOffset" : 471912
        },
        {
            "buffer" : 0,
            "byteLength" : 224,
            "byteOffset" : 472248
        },
        {
            "buffer" : 0,
            "byteLength" : 96,
            "byteOffset" : 472472
        }
    ],
    "buffers" : [
        {
            "byteLength" : 472568,
            "uri" : "data:application/octet-stream;base64,"
        }
    ]
}
