{
    "asset" : {
        "generator" : "Khronos glTF Blender I/O v1.3.48",
        "version" : "2.0"
    },
    "scene" : 0,
    "scenes" : [
        {
            "name" : "Scene",
            "nodes" : [
                0
            ]
        }
    ],
    "nodes" : [
        {
            "mesh" : 0,
            "name" : "Cube",
            "scale" : [
                1,
                0.11999136209487915,
                1
            ],
            "translation" : [
                0,
                0.4660660922527313,
                0
            ]
        }
    ],
    "materials" : [
        {
            "doubleSided" : true,
            "emissiveFactor" : [
                0,
                0,
                0
            ],
            "name" : "armchair",
            "pbrMetallicRoughness" : {
                "baseColorTexture" : {
                    "index" : 0,
                    "texCoord" : 0
                },
                "metallicFactor" : 0,
                "roughnessFactor" : 0.4000000059604645
            }
        }
    ],
    "meshes" : [
        {
            "name" : "Cube",
            "primitives" : [
                {
                    "attributes" : {
                        "POSITION" : 0,
                        "NORMAL" : 1,
                        "TEXCOORD_0" : 2
                    },
                    "indices" : 3,
                    "material" : 0
                }
            ]
        }
    ],
    "textures" : [
        {
            "source" : 0
        }
    ],
    "images" : [
        {
            "bufferView" : 4,
            "mimeType" : "image/png",
            "name" : "armchair"
        }
    ],
    "accessors" : [
        {
            "bufferView" : 0,
            "componentType" : 5126,
            "count" : 1040,
            "max" : [
                1,
                12.514723777770996,
                1.0652828216552734
            ],
            "min" : [
                -1,
                -3.608192205429077,
                -1
            ],
            "type" : "VEC3"
        },
        {
            "bufferView" : 1,
            "componentType" : 5126,
            "count" : 1040,
            "type" : "VEC3"
        },
        {
            "bufferView" : 2,
            "componentType" : 5126,
            "count" : 1040,
            "type" : "VEC2"
        },
        {
            "bufferView" : 3,
            "componentType" : 5123,
            "count" : 2328,
            "type" : "SCALAR"
        }
    ],
    "bufferViews" : [
        {
            "buffer" : 0,
            "byteLength" : 12480,
            "byteOffset" : 0
        },
        {
            "buffer" : 0,
            "byteLength" : 12480,
            "byteOffset" : 12480
        },
        {
            "buffer" : 0,
            "byteLength" : 8320,
            "byteOffset" : 24960
        },
        {
            "buffer" : 0,
            "byteLength" : 4656,
            "byteOffset" : 33280
        },
        {
            "buffer" : 0,
            "byteLength" : 418189,
            "byteOffset" : 37936
        }
    ],
    "buffers" : [
        {
            "byteLength" : 456128,
            "uri" : "data:application/octet-stream;base64,"
        }
    ]
}
