{
    "asset" : {
        "generator" : "Khronos glTF Blender I/O v1.3.48",
        "version" : "2.0"
    },
    "scene" : 0,
    "scenes" : [
        {
            "name" : "Scene",
            "nodes" : [
                0
            ]
        }
    ],
    "nodes" : [
        {
            "mesh" : 0,
            "name" : "Cube",
            "translation" : [
                0,
                0.16110286116600037,
                0
            ]
        }
    ],
    "materials" : [
        {
            "doubleSided" : true,
            "emissiveFactor" : [
                0,
                0,
                0
            ],
            "name" : "receptdesk",
            "pbrMetallicRoughness" : {
                "baseColorTexture" : {
                    "index" : 0,
                    "texCoord" : 0
                },
                "metallicFactor" : 0,
                "roughnessFactor" : 0.4000000059604645
            }
        },
        {
            "doubleSided" : true,
            "name" : "receptglass",
            "pbrMetallicRoughness" : {}
        }
    ],
    "meshes" : [
        {
            "name" : "Cube",
            "primitives" : [
                {
                    "attributes" : {
                        "POSITION" : 0,
                        "NORMAL" : 1,
                        "TEXCOORD_0" : 2
                    },
                    "indices" : 3,
                    "material" : 0
                },
                {
                    "attributes" : {
                        "POSITION" : 4,
                        "NORMAL" : 5,
                        "TEXCOORD_0" : 6
                    },
                    "indices" : 7,
                    "material" : 1
                }
            ]
        }
    ],
    "textures" : [
        {
            "source" : 0
        }
    ],
    "images" : [
        {
            "bufferView" : 4,
            "mimeType" : "image/png",
            "name" : "receptiondesk"
        }
    ],
    "accessors" : [
        {
            "bufferView" : 0,
            "componentType" : 5126,
            "count" : 253,
            "max" : [
                2.6524837017059326,
                1.992322564125061,
                1.6004976034164429
            ],
            "min" : [
                -2.6524837017059326,
                -0.0076773762702941895,
                -0.9723825454711914
            ],
            "type" : "VEC3"
        },
        {
            "bufferView" : 1,
            "componentType" : 5126,
            "count" : 253,
            "type" : "VEC3"
        },
        {
            "bufferView" : 2,
            "componentType" : 5126,
            "count" : 253,
            "type" : "VEC2"
        },
        {
            "bufferView" : 3,
            "componentType" : 5123,
            "count" : 534,
            "type" : "SCALAR"
        },
        {
            "bufferView" : 5,
            "componentType" : 5126,
            "count" : 8,
            "max" : [
                2.493060827255249,
                1.9712400436401367,
                1.3074142932891846
            ],
            "min" : [
                -2.493060827255249,
                1.9712400436401367,
                1.2498254776000977
            ],
            "type" : "VEC3"
        },
        {
            "bufferView" : 6,
            "componentType" : 5126,
            "count" : 8,
            "type" : "VEC3"
        },
        {
            "bufferView" : 7,
            "componentType" : 5126,
            "count" : 8,
            "type" : "VEC2"
        },
        {
            "bufferView" : 8,
            "componentType" : 5123,
            "count" : 12,
            "type" : "SCALAR"
        }
    ],
    "bufferViews" : [
        {
            "buffer" : 0,
            "byteLength" : 3036,
            "byteOffset" : 0
        },
        {
            "buffer" : 0,
            "byteLength" : 3036,
            "byteOffset" : 3036
        },
        {
            "buffer" : 0,
            "byteLength" : 2024,
            "byteOffset" : 6072
        },
        {
            "buffer" : 0,
            "byteLength" : 1068,
            "byteOffset" : 8096
        },
        {
            "buffer" : 0,
            "byteLength" : 327490,
            "byteOffset" : 9164
        },
        {
            "buffer" : 0,
            "byteLength" : 96,
            "byteOffset" : 336656
        },
        {
            "buffer" : 0,
            "byteLength" : 96,
            "byteOffset" : 336752
        },
        {
            "buffer" : 0,
            "byteLength" : 64,
            "byteOffset" : 336848
        },
        {
            "buffer" : 0,
            "byteLength" : 24,
            "byteOffset" : 336912
        }
    ],
    "buffers" : [
        {
            "byteLength" : 336936,
            "uri" : "data:application/octet-stream;base64,"
        }
    ]
}
