{
    "asset" : {
        "generator" : "Khronos glTF Blender I/O v1.3.48",
        "version" : "2.0"
    },
    "scene" : 0,
    "scenes" : [
        {
            "name" : "Scene",
            "nodes" : [
                0
            ]
        }
    ],
    "nodes" : [
        {
            "mesh" : 0,
            "name" : "Cylinder",
            "translation" : [
                0,
                1.1069468259811401,
                0
            ]
        }
    ],
    "materials" : [
        {
            "doubleSided" : true,
            "emissiveFactor" : [
                0,
                0,
                0
            ],
            "name" : "leafnpot",
            "pbrMetallicRoughness" : {
                "baseColorTexture" : {
                    "index" : 0,
                    "texCoord" : 0
                },
                "metallicFactor" : 0,
                "roughnessFactor" : 0.5
            }
        }
    ],
    "meshes" : [
        {
            "name" : "Cylinder",
            "primitives" : [
                {
                    "attributes" : {
                        "POSITION" : 0,
                        "NORMAL" : 1,
                        "TEXCOORD_0" : 2
                    },
                    "indices" : 3,
                    "material" : 0
                }
            ]
        }
    ],
    "textures" : [
        {
            "source" : 0
        }
    ],
    "images" : [
        {
            "bufferView" : 4,
            "mimeType" : "image/png",
            "name" : "officeplant"
        }
    ],
    "accessors" : [
        {
            "bufferView" : 0,
            "componentType" : 5126,
            "count" : 14892,
            "max" : [
                1.2195706367492676,
                5.602433204650879,
                1.4290564060211182
            ],
            "min" : [
                -1.2894268035888672,
                -1,
                -1.244667887687683
            ],
            "type" : "VEC3"
        },
        {
            "bufferView" : 1,
            "componentType" : 5126,
            "count" : 14892,
            "type" : "VEC3"
        },
        {
            "bufferView" : 2,
            "componentType" : 5126,
            "count" : 14892,
            "type" : "VEC2"
        },
        {
            "bufferView" : 3,
            "componentType" : 5123,
            "count" : 22392,
            "type" : "SCALAR"
        }
    ],
    "bufferViews" : [
        {
            "buffer" : 0,
            "byteLength" : 178704,
            "byteOffset" : 0
        },
        {
            "buffer" : 0,
            "byteLength" : 178704,
            "byteOffset" : 178704
        },
        {
            "buffer" : 0,
            "byteLength" : 119136,
            "byteOffset" : 357408
        },
        {
            "buffer" : 0,
            "byteLength" : 44784,
            "byteOffset" : 476544
        },
        {
            "buffer" : 0,
            "byteLength" : 711755,
            "byteOffset" : 521328
        }
    ],
    "buffers" : [
        {
            "byteLength" : 1233084,
            "uri" : "data:application/octet-stream;base64,"
        }
    ]
}
