{
    "asset" : {
        "generator" : "Khronos glTF Blender I/O v1.3.48",
        "version" : "2.0"
    },
    "scene" : 0,
    "scenes" : [
        {
            "name" : "Scene",
            "nodes" : [
                0
            ]
        }
    ],
    "nodes" : [
        {
            "mesh" : 0,
            "name" : "Cube"
        }
    ],
    "materials" : [
        {
            "doubleSided" : true,
            "emissiveFactor" : [
                0,
                0,
                0
            ],
            "name" : "sword",
            "pbrMetallicRoughness" : {
                "baseColorTexture" : {
                    "index" : 0,
                    "texCoord" : 0
                },
                "metallicFactor" : 0,
                "roughnessFactor" : 0.4000000059604645
            }
        }
    ],
    "meshes" : [
        {
            "name" : "Cube",
            "primitives" : [
                {
                    "attributes" : {
                        "POSITION" : 0,
                        "NORMAL" : 1,
                        "TEXCOORD_0" : 2
                    },
                    "indices" : 3,
                    "material" : 0
                }
            ]
        }
    ],
    "textures" : [
        {
            "source" : 0
        }
    ],
    "images" : [
        {
            "bufferView" : 4,
            "mimeType" : "image/png",
            "name" : "swordofdeath"
        }
    ],
    "accessors" : [
        {
            "bufferView" : 0,
            "componentType" : 5126,
            "count" : 670,
            "max" : [
                1.4310884475708008,
                16.282169342041016,
                0.27950310707092285
            ],
            "min" : [
                -1.4310884475708008,
                0.10218524932861328,
                -0.2820635437965393
            ],
            "type" : "VEC3"
        },
        {
            "bufferView" : 1,
            "componentType" : 5126,
            "count" : 670,
            "type" : "VEC3"
        },
        {
            "bufferView" : 2,
            "componentType" : 5126,
            "count" : 670,
            "type" : "VEC2"
        },
        {
            "bufferView" : 3,
            "componentType" : 5123,
            "count" : 1044,
            "type" : "SCALAR"
        }
    ],
    "bufferViews" : [
        {
            "buffer" : 0,
            "byteLength" : 8040,
            "byteOffset" : 0
        },
        {
            "buffer" : 0,
            "byteLength" : 8040,
            "byteOffset" : 8040
        },
        {
            "buffer" : 0,
            "byteLength" : 5360,
            "byteOffset" : 16080
        },
        {
            "buffer" : 0,
            "byteLength" : 2088,
            "byteOffset" : 21440
        },
        {
            "buffer" : 0,
            "byteLength" : 71115,
            "byteOffset" : 23528
        }
    ],
    "buffers" : [
        {
            "byteLength" : 94644,
            "uri" : "data:application/octet-stream;base64,"
        }
    ]
}
