{
    "asset" : {
        "generator" : "Khronos glTF Blender I/O v1.3.48",
        "version" : "2.0"
    },
    "scene" : 0,
    "scenes" : [
        {
            "name" : "Scene",
            "nodes" : [
                0
            ]
        }
    ],
    "nodes" : [
        {
            "mesh" : 0,
            "name" : "Cube"
        }
    ],
    "materials" : [
        {
            "doubleSided" : true,
            "emissiveFactor" : [
                0,
                0,
                0
            ],
            "name" : "floor",
            "pbrMetallicRoughness" : {
                "baseColorTexture" : {
                    "index" : 0,
                    "texCoord" : 0
                },
                "metallicFactor" : 0,
                "roughnessFactor" : 0.5
            }
        },
        {
            "doubleSided" : true,
            "emissiveFactor" : [
                0,
                0,
                0
            ],
            "name" : "otherwalls",
            "pbrMetallicRoughness" : {
                "baseColorTexture" : {
                    "index" : 1,
                    "texCoord" : 0
                },
                "metallicFactor" : 0,
                "roughnessFactor" : 0.5
            }
        },
        {
            "doubleSided" : true,
            "emissiveFactor" : [
                0,
                0,
                0
            ],
            "name" : "walls",
            "pbrMetallicRoughness" : {
                "baseColorTexture" : {
                    "index" : 2,
                    "texCoord" : 0
                },
                "metallicFactor" : 0,
                "roughnessFactor" : 0.4000000059604645
            }
        },
        {
            "doubleSided" : true,
            "emissiveFactor" : [
                0,
                0,
                0
            ],
            "name" : "ramp",
            "pbrMetallicRoughness" : {
                "baseColorTexture" : {
                    "index" : 3,
                    "texCoord" : 0
                },
                "metallicFactor" : 0,
                "roughnessFactor" : 0.5
            }
        },
        {
            "doubleSided" : true,
            "emissiveFactor" : [
                0,
                0,
                0
            ],
            "name" : "arch",
            "pbrMetallicRoughness" : {
                "baseColorTexture" : {
                    "index" : 4,
                    "texCoord" : 0
                },
                "metallicFactor" : 0,
                "roughnessFactor" : 0.5
            }
        }
    ],
    "meshes" : [
        {
            "name" : "Cube",
            "primitives" : [
                {
                    "attributes" : {
                        "POSITION" : 0,
                        "NORMAL" : 1,
                        "TEXCOORD_0" : 2
                    },
                    "indices" : 3,
                    "material" : 0
                },
                {
                    "attributes" : {
                        "POSITION" : 4,
                        "NORMAL" : 5,
                        "TEXCOORD_0" : 6
                    },
                    "indices" : 7,
                    "material" : 1
                },
                {
                    "attributes" : {
                        "POSITION" : 8,
                        "NORMAL" : 9,
                        "TEXCOORD_0" : 10
                    },
                    "indices" : 11,
                    "material" : 2
                },
                {
                    "attributes" : {
                        "POSITION" : 12,
                        "NORMAL" : 13,
                        "TEXCOORD_0" : 14
                    },
                    "indices" : 15,
                    "material" : 3
                },
                {
                    "attributes" : {
                        "POSITION" : 16,
                        "NORMAL" : 17,
                        "TEXCOORD_0" : 18
                    },
                    "indices" : 19,
                    "material" : 4
                }
            ]
        }
    ],
    "textures" : [
        {
            "source" : 0
        },
        {
            "source" : 0
        },
        {
            "source" : 0
        },
        {
            "source" : 0
        },
        {
            "source" : 0
        }
    ],
    "images" : [
        {
            "bufferView" : 4,
            "mimeType" : "image/png",
            "name" : "arenatext"
        }
    ],
    "accessors" : [
        {
            "bufferView" : 0,
            "componentType" : 5126,
            "count" : 116,
            "max" : [
                102.74040222167969,
                6.018548965454102,
                49.627838134765625
            ],
            "min" : [
                -0.7939262390136719,
                -1.0451645851135254,
                -50.66224670410156
            ],
            "type" : "VEC3"
        },
        {
            "bufferView" : 1,
            "componentType" : 5126,
            "count" : 116,
            "type" : "VEC3"
        },
        {
            "bufferView" : 2,
            "componentType" : 5126,
            "count" : 116,
            "type" : "VEC2"
        },
        {
            "bufferView" : 3,
            "componentType" : 5123,
            "count" : 216,
            "type" : "SCALAR"
        },
        {
            "bufferView" : 5,
            "componentType" : 5126,
            "count" : 120,
            "max" : [
                77.68988800048828,
                16.692947387695312,
                49.14712142944336
            ],
            "min" : [
                27.20818328857422,
                -2.4511778354644775,
                -49.284324645996094
            ],
            "type" : "VEC3"
        },
        {
            "bufferView" : 6,
            "componentType" : 5126,
            "count" : 120,
            "type" : "VEC3"
        },
        {
            "bufferView" : 7,
            "componentType" : 5126,
            "count" : 120,
            "type" : "VEC2"
        },
        {
            "bufferView" : 8,
            "componentType" : 5123,
            "count" : 180,
            "type" : "SCALAR"
        },
        {
            "bufferView" : 9,
            "componentType" : 5126,
            "count" : 92,
            "max" : [
                106.30654907226562,
                34.61652755737305,
                53.79917907714844
            ],
            "min" : [
                -0.4072418212890625,
                -7.209295272827148,
                -53.60749816894531
            ],
            "type" : "VEC3"
        },
        {
            "bufferView" : 10,
            "componentType" : 5126,
            "count" : 92,
            "type" : "VEC3"
        },
        {
            "bufferView" : 11,
            "componentType" : 5126,
            "count" : 92,
            "type" : "VEC2"
        },
        {
            "bufferView" : 12,
            "componentType" : 5123,
            "count" : 138,
            "type" : "SCALAR"
        },
        {
            "bufferView" : 13,
            "componentType" : 5126,
            "count" : 4,
            "max" : [
                59.030006408691406,
                8.310453414916992,
                -25.842573165893555
            ],
            "min" : [
                46.849205017089844,
                1.2488675117492676,
                -40.78857421875
            ],
            "type" : "VEC3"
        },
        {
            "bufferView" : 14,
            "componentType" : 5126,
            "count" : 4,
            "type" : "VEC3"
        },
        {
            "bufferView" : 15,
            "componentType" : 5126,
            "count" : 4,
            "type" : "VEC2"
        },
        {
            "bufferView" : 16,
            "componentType" : 5123,
            "count" : 6,
            "type" : "SCALAR"
        },
        {
            "bufferView" : 17,
            "componentType" : 5126,
            "count" : 64,
            "max" : [
                48.64260482788086,
                18.627595901489258,
                13.746728897094727
            ],
            "min" : [
                44.14685821533203,
                0.8240147233009338,
                -3.3851747512817383
            ],
            "type" : "VEC3"
        },
        {
            "bufferView" : 18,
            "componentType" : 5126,
            "count" : 64,
            "type" : "VEC3"
        },
        {
            "bufferView" : 19,
            "componentType" : 5126,
            "count" : 64,
            "type" : "VEC2"
        },
        {
            "bufferView" : 20,
            "componentType" : 5123,
            "count" : 132,
            "type" : "SCALAR"
        }
    ],
    "bufferViews" : [
        {
            "buffer" : 0,
            "byteLength" : 1392,
            "byteOffset" : 0
        },
        {
            "buffer" : 0,
            "byteLength" : 1392,
            "byteOffset" : 1392
        },
        {
            "buffer" : 0,
            "byteLength" : 928,
            "byteOffset" : 2784
        },
        {
            "buffer" : 0,
            "byteLength" : 432,
            "byteOffset" : 3712
        },
        {
            "buffer" : 0,
            "byteLength" : 376694,
            "byteOffset" : 4144
        },
        {
            "buffer" : 0,
            "byteLength" : 1440,
            "byteOffset" : 380840
        },
        {
            "buffer" : 0,
            "byteLength" : 1440,
            "byteOffset" : 382280
        },
        {
            "buffer" : 0,
            "byteLength" : 960,
            "byteOffset" : 383720
        },
        {
            "buffer" : 0,
            "byteLength" : 360,
            "byteOffset" : 384680
        },
        {
            "buffer" : 0,
            "byteLength" : 1104,
            "byteOffset" : 385040
        },
        {
            "buffer" : 0,
            "byteLength" : 1104,
            "byteOffset" : 386144
        },
        {
            "buffer" : 0,
            "byteLength" : 736,
            "byteOffset" : 387248
        },
        {
            "buffer" : 0,
            "byteLength" : 276,
            "byteOffset" : 387984
        },
        {
            "buffer" : 0,
            "byteLength" : 48,
            "byteOffset" : 388260
        },
        {
            "buffer" : 0,
            "byteLength" : 48,
            "byteOffset" : 388308
        },
        {
            "buffer" : 0,
            "byteLength" : 32,
            "byteOffset" : 388356
        },
        {
            "buffer" : 0,
            "byteLength" : 12,
            "byteOffset" : 388388
        },
        {
            "buffer" : 0,
            "byteLength" : 768,
            "byteOffset" : 388400
        },
        {
            "buffer" : 0,
            "byteLength" : 768,
            "byteOffset" : 389168
        },
        {
            "buffer" : 0,
            "byteLength" : 512,
            "byteOffset" : 389936
        },
        {
            "buffer" : 0,
            "byteLength" : 264,
            "byteOffset" : 390448
        }
    ],
    "buffers" : [
        {
            "byteLength" : 390712,
            "uri" : "data:application/octet-stream;base64,"
        }
    ]
}
