{
    "asset" : {
        "generator" : "Khronos glTF Blender I/O v1.3.48",
        "version" : "2.0"
    },
    "scene" : 0,
    "scenes" : [
        {
            "name" : "Scene",
            "nodes" : [
                0
            ]
        }
    ],
    "nodes" : [
        {
            "mesh" : 0,
            "name" : "Cube",
            "scale" : [
                0.7259508967399597,
                0.7259508967399597,
                0.7259508967399597
            ]
        }
    ],
    "materials" : [
        {
            "doubleSided" : true,
            "emissiveFactor" : [
                0,
                0,
                0
            ],
            "name" : "darkmetal",
            "pbrMetallicRoughness" : {
                "baseColorTexture" : {
                    "index" : 0,
                    "texCoord" : 0
                },
                "metallicFactor" : 0,
                "roughnessFactor" : 0.4000000059604645
            }
        },
        {
            "doubleSided" : true,
            "emissiveFactor" : [
                0,
                0,
                0
            ],
            "name" : "pipenscreen",
            "pbrMetallicRoughness" : {
                "baseColorTexture" : {
                    "index" : 1,
                    "texCoord" : 0
                },
                "metallicFactor" : 0,
                "roughnessFactor" : 0.5
            }
        },
        {
            "alphaMode" : "BLEND",
            "doubleSided" : true,
            "emissiveFactor" : [
                0,
                0,
                0
            ],
            "name" : "glass",
            "pbrMetallicRoughness" : {
                "baseColorFactor" : [
                    0,
                    0.8000000715255737,
                    0.010781291872262955,
                    0.6272727251052856
                ],
                "metallicFactor" : 0,
                "roughnessFactor" : 0
            }
        }
    ],
    "meshes" : [
        {
            "name" : "Cube",
            "primitives" : [
                {
                    "attributes" : {
                        "POSITION" : 0,
                        "NORMAL" : 1,
                        "TEXCOORD_0" : 2
                    },
                    "indices" : 3,
                    "material" : 0
                },
                {
                    "attributes" : {
                        "POSITION" : 4,
                        "NORMAL" : 5,
                        "TEXCOORD_0" : 6
                    },
                    "indices" : 7,
                    "material" : 1
                },
                {
                    "attributes" : {
                        "POSITION" : 8,
                        "NORMAL" : 9,
                        "TEXCOORD_0" : 10
                    },
                    "indices" : 11,
                    "material" : 2
                }
            ]
        }
    ],
    "textures" : [
        {
            "source" : 0
        },
        {
            "source" : 1
        }
    ],
    "images" : [
        {
            "bufferView" : 4,
            "mimeType" : "image/png",
            "name" : "darkmetal"
        },
        {
            "bufferView" : 9,
            "mimeType" : "image/png",
            "name" : "pipenscreen"
        }
    ],
    "accessors" : [
        {
            "bufferView" : 0,
            "componentType" : 5126,
            "count" : 400,
            "max" : [
                2.370084762573242,
                6.800750255584717,
                2.370084762573242
            ],
            "min" : [
                -2.370084524154663,
                0.01702660322189331,
                -2.370084762573242
            ],
            "type" : "VEC3"
        },
        {
            "bufferView" : 1,
            "componentType" : 5126,
            "count" : 400,
            "type" : "VEC3"
        },
        {
            "bufferView" : 2,
            "componentType" : 5126,
            "count" : 400,
            "type" : "VEC2"
        },
        {
            "bufferView" : 3,
            "componentType" : 5123,
            "count" : 636,
            "type" : "SCALAR"
        },
        {
            "bufferView" : 5,
            "componentType" : 5126,
            "count" : 256,
            "max" : [
                1.976828694343567,
                2.064647912979126,
                2.176788806915283
            ],
            "min" : [
                -1.9808437824249268,
                0.03201591968536377,
                -1.98981773853302
            ],
            "type" : "VEC3"
        },
        {
            "bufferView" : 6,
            "componentType" : 5126,
            "count" : 256,
            "type" : "VEC3"
        },
        {
            "bufferView" : 7,
            "componentType" : 5126,
            "count" : 256,
            "type" : "VEC2"
        },
        {
            "bufferView" : 8,
            "componentType" : 5123,
            "count" : 384,
            "type" : "SCALAR"
        },
        {
            "bufferView" : 10,
            "componentType" : 5126,
            "count" : 32,
            "max" : [
                1.4509038925170898,
                5.953082084655762,
                1.4603548049926758
            ],
            "min" : [
                -1.4698057174682617,
                1.6541504859924316,
                -1.4603548049926758
            ],
            "type" : "VEC3"
        },
        {
            "bufferView" : 11,
            "componentType" : 5126,
            "count" : 32,
            "type" : "VEC3"
        },
        {
            "bufferView" : 12,
            "componentType" : 5126,
            "count" : 32,
            "type" : "VEC2"
        },
        {
            "bufferView" : 13,
            "componentType" : 5123,
            "count" : 48,
            "type" : "SCALAR"
        }
    ],
    "bufferViews" : [
        {
            "buffer" : 0,
            "byteLength" : 4800,
            "byteOffset" : 0
        },
        {
            "buffer" : 0,
            "byteLength" : 4800,
            "byteOffset" : 4800
        },
        {
            "buffer" : 0,
            "byteLength" : 3200,
            "byteOffset" : 9600
        },
        {
            "buffer" : 0,
            "byteLength" : 1272,
            "byteOffset" : 12800
        },
        {
            "buffer" : 0,
            "byteLength" : 532703,
            "byteOffset" : 14072
        },
        {
            "buffer" : 0,
            "byteLength" : 3072,
            "byteOffset" : 546776
        },
        {
            "buffer" : 0,
            "byteLength" : 3072,
            "byteOffset" : 549848
        },
        {
            "buffer" : 0,
            "byteLength" : 2048,
            "byteOffset" : 552920
        },
        {
            "buffer" : 0,
            "byteLength" : 768,
            "byteOffset" : 554968
        },
        {
            "buffer" : 0,
            "byteLength" : 352565,
            "byteOffset" : 555736
        },
        {
            "buffer" : 0,
            "byteLength" : 384,
            "byteOffset" : 908304
        },
        {
            "buffer" : 0,
            "byteLength" : 384,
            "byteOffset" : 908688
        },
        {
            "buffer" : 0,
            "byteLength" : 256,
            "byteOffset" : 909072
        },
        {
            "buffer" : 0,
            "byteLength" : 96,
            "byteOffset" : 909328
        }
    ],
    "buffers" : [
        {
            "byteLength" : 909424,
            "uri" : "data:application/octet-stream;base64,"
        }
    ]
}
