{
    "asset" : {
        "generator" : "Khronos glTF Blender I/O v1.3.48",
        "version" : "2.0"
    },
    "scene" : 0,
    "scenes" : [
        {
            "name" : "Scene",
            "nodes" : [
                0
            ]
        }
    ],
    "nodes" : [
        {
            "mesh" : 0,
            "name" : "Cube"
        }
    ],
    "materials" : [
        {
            "doubleSided" : true,
            "emissiveFactor" : [
                0,
                0,
                0
            ],
            "name" : "couch",
            "pbrMetallicRoughness" : {
                "baseColorTexture" : {
                    "index" : 0,
                    "texCoord" : 0
                },
                "metallicFactor" : 0,
                "roughnessFactor" : 0.4000000059604645
            }
        }
    ],
    "meshes" : [
        {
            "name" : "Cube",
            "primitives" : [
                {
                    "attributes" : {
                        "POSITION" : 0,
                        "NORMAL" : 1,
                        "TEXCOORD_0" : 2
                    },
                    "indices" : 3,
                    "material" : 0
                }
            ]
        }
    ],
    "textures" : [
        {
            "source" : 0
        }
    ],
    "images" : [
        {
            "bufferView" : 4,
            "mimeType" : "image/png",
            "name" : "couch"
        }
    ],
    "accessors" : [
        {
            "bufferView" : 0,
            "componentType" : 5126,
            "count" : 3643,
            "max" : [
                2.6295249462127686,
                2.270348072052002,
                1.0000001192092896
            ],
            "min" : [
                -2.6295249462127686,
                0.010395944118499756,
                -0.9555944800376892
            ],
            "type" : "VEC3"
        },
        {
            "bufferView" : 1,
            "componentType" : 5126,
            "count" : 3643,
            "type" : "VEC3"
        },
        {
            "bufferView" : 2,
            "componentType" : 5126,
            "count" : 3643,
            "type" : "VEC2"
        },
        {
            "bufferView" : 3,
            "componentType" : 5123,
            "count" : 6192,
            "type" : "SCALAR"
        }
    ],
    "bufferViews" : [
        {
            "buffer" : 0,
            "byteLength" : 43716,
            "byteOffset" : 0
        },
        {
            "buffer" : 0,
            "byteLength" : 43716,
            "byteOffset" : 43716
        },
        {
            "buffer" : 0,
            "byteLength" : 29144,
            "byteOffset" : 87432
        },
        {
            "buffer" : 0,
            "byteLength" : 12384,
            "byteOffset" : 116576
        },
        {
            "buffer" : 0,
            "byteLength" : 573540,
            "byteOffset" : 128960
        }
    ],
    "buffers" : [
        {
            "byteLength" : 702500,
            "uri" : "data:application/octet-stream;base64,"
        }
    ]
}
