{
    "asset" : {
        "generator" : "Khronos glTF Blender I/O v1.3.48",
        "version" : "2.0"
    },
    "scene" : 0,
    "scenes" : [
        {
            "name" : "Scene",
            "nodes" : [
                0
            ]
        }
    ],
    "nodes" : [
        {
            "mesh" : 0,
            "name" : "Cube",
            "translation" : [
                0,
                1.2191394567489624,
                0
            ]
        }
    ],
    "materials" : [
        {
            "doubleSided" : true,
            "emissiveFactor" : [
                0,
                0,
                0
            ],
            "name" : "officesafe",
            "pbrMetallicRoughness" : {
                "baseColorTexture" : {
                    "index" : 0,
                    "texCoord" : 0
                },
                "metallicFactor" : 0,
                "roughnessFactor" : 0.4000000059604645
            }
        }
    ],
    "meshes" : [
        {
            "name" : "Cube",
            "primitives" : [
                {
                    "attributes" : {
                        "POSITION" : 0,
                        "NORMAL" : 1,
                        "TEXCOORD_0" : 2
                    },
                    "indices" : 3,
                    "material" : 0
                }
            ]
        }
    ],
    "textures" : [
        {
            "source" : 0
        }
    ],
    "images" : [
        {
            "bufferView" : 4,
            "mimeType" : "image/png",
            "name" : "safe"
        }
    ],
    "accessors" : [
        {
            "bufferView" : 0,
            "componentType" : 5126,
            "count" : 154,
            "max" : [
                0.4978424310684204,
                -0.0677649974822998,
                0.5153234601020813
            ],
            "min" : [
                -0.4978424310684204,
                -1.213287115097046,
                -0.5153234601020813
            ],
            "type" : "VEC3"
        },
        {
            "bufferView" : 1,
            "componentType" : 5126,
            "count" : 154,
            "type" : "VEC3"
        },
        {
            "bufferView" : 2,
            "componentType" : 5126,
            "count" : 154,
            "type" : "VEC2"
        },
        {
            "bufferView" : 3,
            "componentType" : 5123,
            "count" : 252,
            "type" : "SCALAR"
        }
    ],
    "bufferViews" : [
        {
            "buffer" : 0,
            "byteLength" : 1848,
            "byteOffset" : 0
        },
        {
            "buffer" : 0,
            "byteLength" : 1848,
            "byteOffset" : 1848
        },
        {
            "buffer" : 0,
            "byteLength" : 1232,
            "byteOffset" : 3696
        },
        {
            "buffer" : 0,
            "byteLength" : 504,
            "byteOffset" : 4928
        },
        {
            "buffer" : 0,
            "byteLength" : 84550,
            "byteOffset" : 5432
        }
    ],
    "buffers" : [
        {
            "byteLength" : 89984,
            "uri" : "data:application/octet-stream;base64,"
        }
    ]
}
