{
    "asset" : {
        "generator" : "Khronos glTF Blender I/O v1.3.48",
        "version" : "2.0"
    },
    "scene" : 0,
    "scenes" : [
        {
            "name" : "Scene",
            "nodes" : [
                0
            ]
        }
    ],
    "nodes" : [
        {
            "mesh" : 0,
            "name" : "Cube"
        }
    ],
    "materials" : [
        {
            "doubleSided" : true,
            "emissiveFactor" : [
                0,
                0,
                0
            ],
            "name" : "tabletennis",
            "pbrMetallicRoughness" : {
                "baseColorTexture" : {
                    "index" : 0,
                    "texCoord" : 0
                },
                "metallicFactor" : 0,
                "roughnessFactor" : 0.4000000059604645
            }
        }
    ],
    "meshes" : [
        {
            "name" : "Cube",
            "primitives" : [
                {
                    "attributes" : {
                        "POSITION" : 0,
                        "NORMAL" : 1,
                        "TEXCOORD_0" : 2
                    },
                    "indices" : 3,
                    "material" : 0
                }
            ]
        }
    ],
    "textures" : [
        {
            "source" : 0
        }
    ],
    "images" : [
        {
            "bufferView" : 4,
            "mimeType" : "image/png",
            "name" : "tabletennistable"
        }
    ],
    "accessors" : [
        {
            "bufferView" : 0,
            "componentType" : 5126,
            "count" : 564,
            "max" : [
                1.9954495429992676,
                1.6288869380950928,
                2.9970104694366455
            ],
            "min" : [
                -1.9954495429992676,
                -0.0007076859474182129,
                -2.9970104694366455
            ],
            "type" : "VEC3"
        },
        {
            "bufferView" : 1,
            "componentType" : 5126,
            "count" : 564,
            "type" : "VEC3"
        },
        {
            "bufferView" : 2,
            "componentType" : 5126,
            "count" : 564,
            "type" : "VEC2"
        },
        {
            "bufferView" : 3,
            "componentType" : 5123,
            "count" : 906,
            "type" : "SCALAR"
        }
    ],
    "bufferViews" : [
        {
            "buffer" : 0,
            "byteLength" : 6768,
            "byteOffset" : 0
        },
        {
            "buffer" : 0,
            "byteLength" : 6768,
            "byteOffset" : 6768
        },
        {
            "buffer" : 0,
            "byteLength" : 4512,
            "byteOffset" : 13536
        },
        {
            "buffer" : 0,
            "byteLength" : 1812,
            "byteOffset" : 18048
        },
        {
            "buffer" : 0,
            "byteLength" : 277289,
            "byteOffset" : 19860
        }
    ],
    "buffers" : [
        {
            "byteLength" : 297152,
            "uri" : "data:application/octet-stream;base64,"
        }
    ]
}
