{
    "asset" : {
        "generator" : "Khronos glTF Blender I/O v1.3.48",
        "version" : "2.0"
    },
    "scene" : 0,
    "scenes" : [
        {
            "name" : "Scene",
            "nodes" : [
                0
            ]
        }
    ],
    "nodes" : [
        {
            "mesh" : 0,
            "name" : "Cube"
        }
    ],
    "materials" : [
        {
            "doubleSided" : true,
            "emissiveFactor" : [
                0,
                0,
                0
            ],
            "name" : "receptdesk",
            "pbrMetallicRoughness" : {
                "baseColorTexture" : {
                    "index" : 0,
                    "texCoord" : 0
                },
                "metallicFactor" : 0,
                "roughnessFactor" : 0.4000000059604645
            }
        },
        {
            "doubleSided" : true,
            "name" : "receptglass",
            "pbrMetallicRoughness" : {}
        }
    ],
    "meshes" : [
        {
            "name" : "Cube",
            "primitives" : [
                {
                    "attributes" : {
                        "POSITION" : 0,
                        "NORMAL" : 1,
                        "TEXCOORD_0" : 2
                    },
                    "indices" : 3,
                    "material" : 0
                },
                {
                    "attributes" : {
                        "POSITION" : 4,
                        "NORMAL" : 5,
                        "TEXCOORD_0" : 6
                    },
                    "indices" : 7,
                    "material" : 1
                }
            ]
        }
    ],
    "textures" : [
        {
            "source" : 0
        }
    ],
    "images" : [
        {
            "bufferView" : 4,
            "mimeType" : "image/png",
            "name" : "receptiondesk"
        }
    ],
    "accessors" : [
        {
            "bufferView" : 0,
            "componentType" : 5126,
            "count" : 563,
            "max" : [
                4.089681148529053,
                2.6737701892852783,
                1.852763295173645
            ],
            "min" : [
                -4.089681148529053,
                -0.0076773762702941895,
                -2.147432327270508
            ],
            "type" : "VEC3"
        },
        {
            "bufferView" : 1,
            "componentType" : 5126,
            "count" : 563,
            "type" : "VEC3"
        },
        {
            "bufferView" : 2,
            "componentType" : 5126,
            "count" : 563,
            "type" : "VEC2"
        },
        {
            "bufferView" : 3,
            "componentType" : 5123,
            "count" : 996,
            "type" : "SCALAR"
        },
        {
            "bufferView" : 5,
            "componentType" : 5126,
            "count" : 96,
            "max" : [
                3.5672175884246826,
                2.572589874267578,
                1.3074142932891846
            ],
            "min" : [
                -3.5672175884246826,
                1.9712400436401367,
                -1.953660011291504
            ],
            "type" : "VEC3"
        },
        {
            "bufferView" : 6,
            "componentType" : 5126,
            "count" : 96,
            "type" : "VEC3"
        },
        {
            "bufferView" : 7,
            "componentType" : 5126,
            "count" : 96,
            "type" : "VEC2"
        },
        {
            "bufferView" : 8,
            "componentType" : 5123,
            "count" : 144,
            "type" : "SCALAR"
        }
    ],
    "bufferViews" : [
        {
            "buffer" : 0,
            "byteLength" : 6756,
            "byteOffset" : 0
        },
        {
            "buffer" : 0,
            "byteLength" : 6756,
            "byteOffset" : 6756
        },
        {
            "buffer" : 0,
            "byteLength" : 4504,
            "byteOffset" : 13512
        },
        {
            "buffer" : 0,
            "byteLength" : 1992,
            "byteOffset" : 18016
        },
        {
            "buffer" : 0,
            "byteLength" : 327490,
            "byteOffset" : 20008
        },
        {
            "buffer" : 0,
            "byteLength" : 1152,
            "byteOffset" : 347500
        },
        {
            "buffer" : 0,
            "byteLength" : 1152,
            "byteOffset" : 348652
        },
        {
            "buffer" : 0,
            "byteLength" : 768,
            "byteOffset" : 349804
        },
        {
            "buffer" : 0,
            "byteLength" : 288,
            "byteOffset" : 350572
        }
    ],
    "buffers" : [
        {
            "byteLength" : 350860,
            "uri" : "data:application/octet-stream;base64,"
        }
    ]
}
