{
    "asset" : {
        "generator" : "Khronos glTF Blender I/O v1.3.48",
        "version" : "2.0"
    },
    "scene" : 0,
    "scenes" : [
        {
            "name" : "Scene",
            "nodes" : [
                0
            ]
        }
    ],
    "nodes" : [
        {
            "mesh" : 0,
            "name" : "Cube"
        }
    ],
    "materials" : [
        {
            "doubleSided" : true,
            "emissiveFactor" : [
                0,
                0,
                0
            ],
            "name" : "rollchair",
            "pbrMetallicRoughness" : {
                "baseColorTexture" : {
                    "index" : 0,
                    "texCoord" : 0
                },
                "metallicFactor" : 0,
                "roughnessFactor" : 0.4000000059604645
            }
        }
    ],
    "meshes" : [
        {
            "name" : "Cube",
            "primitives" : [
                {
                    "attributes" : {
                        "POSITION" : 0,
                        "NORMAL" : 1,
                        "TEXCOORD_0" : 2
                    },
                    "indices" : 3,
                    "material" : 0
                }
            ]
        }
    ],
    "textures" : [
        {
            "source" : 0
        }
    ],
    "images" : [
        {
            "bufferView" : 4,
            "mimeType" : "image/png",
            "name" : "rollchair"
        }
    ],
    "accessors" : [
        {
            "bufferView" : 0,
            "componentType" : 5126,
            "count" : 3030,
            "max" : [
                0.29580914974212646,
                0.9151746034622192,
                0.26175522804260254
            ],
            "min" : [
                -0.29580914974212646,
                -0.01234546396881342,
                -0.37105733156204224
            ],
            "type" : "VEC3"
        },
        {
            "bufferView" : 1,
            "componentType" : 5126,
            "count" : 3030,
            "type" : "VEC3"
        },
        {
            "bufferView" : 2,
            "componentType" : 5126,
            "count" : 3030,
            "type" : "VEC2"
        },
        {
            "bufferView" : 3,
            "componentType" : 5123,
            "count" : 4662,
            "type" : "SCALAR"
        }
    ],
    "bufferViews" : [
        {
            "buffer" : 0,
            "byteLength" : 36360,
            "byteOffset" : 0
        },
        {
            "buffer" : 0,
            "byteLength" : 36360,
            "byteOffset" : 36360
        },
        {
            "buffer" : 0,
            "byteLength" : 24240,
            "byteOffset" : 72720
        },
        {
            "buffer" : 0,
            "byteLength" : 9324,
            "byteOffset" : 96960
        },
        {
            "buffer" : 0,
            "byteLength" : 412602,
            "byteOffset" : 106284
        }
    ],
    "buffers" : [
        {
            "byteLength" : 518888,
            "uri" : "data:application/octet-stream;base64,"
        }
    ]
}
