{
    "asset" : {
        "generator" : "Khronos glTF Blender I/O v1.3.48",
        "version" : "2.0"
    },
    "scene" : 0,
    "scenes" : [
        {
            "name" : "Scene",
            "nodes" : [
                0
            ]
        }
    ],
    "nodes" : [
        {
            "mesh" : 0,
            "name" : "Cube"
        }
    ],
    "materials" : [
        {
            "doubleSided" : true,
            "emissiveFactor" : [
                0,
                0,
                0
            ],
            "name" : "smalldesk",
            "pbrMetallicRoughness" : {
                "baseColorTexture" : {
                    "index" : 0,
                    "texCoord" : 0
                },
                "metallicFactor" : 0,
                "roughnessFactor" : 0.4000000059604645
            }
        }
    ],
    "meshes" : [
        {
            "name" : "Cube",
            "primitives" : [
                {
                    "attributes" : {
                        "POSITION" : 0,
                        "NORMAL" : 1,
                        "TEXCOORD_0" : 2
                    },
                    "indices" : 3,
                    "material" : 0
                }
            ]
        }
    ],
    "textures" : [
        {
            "source" : 0
        }
    ],
    "images" : [
        {
            "bufferView" : 4,
            "mimeType" : "image/png",
            "name" : "smalldesk"
        }
    ],
    "accessors" : [
        {
            "bufferView" : 0,
            "componentType" : 5126,
            "count" : 333,
            "max" : [
                1.9415560960769653,
                1.9585131406784058,
                1.0017876625061035
            ],
            "min" : [
                -1.9415560960769653,
                -0.04148685932159424,
                -1.0011314153671265
            ],
            "type" : "VEC3"
        },
        {
            "bufferView" : 1,
            "componentType" : 5126,
            "count" : 333,
            "type" : "VEC3"
        },
        {
            "bufferView" : 2,
            "componentType" : 5126,
            "count" : 333,
            "type" : "VEC2"
        },
        {
            "bufferView" : 3,
            "componentType" : 5123,
            "count" : 552,
            "type" : "SCALAR"
        }
    ],
    "bufferViews" : [
        {
            "buffer" : 0,
            "byteLength" : 3996,
            "byteOffset" : 0
        },
        {
            "buffer" : 0,
            "byteLength" : 3996,
            "byteOffset" : 3996
        },
        {
            "buffer" : 0,
            "byteLength" : 2664,
            "byteOffset" : 7992
        },
        {
            "buffer" : 0,
            "byteLength" : 1104,
            "byteOffset" : 10656
        },
        {
            "buffer" : 0,
            "byteLength" : 439808,
            "byteOffset" : 11760
        }
    ],
    "buffers" : [
        {
            "byteLength" : 451568,
            "uri" : "data:application/octet-stream;base64,"
        }
    ]
}
