{
    "asset" : {
        "generator" : "Khronos glTF Blender I/O v1.3.48",
        "version" : "2.0"
    },
    "scene" : 0,
    "scenes" : [
        {
            "name" : "Scene",
            "nodes" : [
                0
            ]
        }
    ],
    "nodes" : [
        {
            "mesh" : 0,
            "name" : "Cube"
        }
    ],
    "materials" : [
        {
            "doubleSided" : true,
            "emissiveFactor" : [
                0,
                0,
                0
            ],
            "name" : "watertower",
            "pbrMetallicRoughness" : {
                "baseColorTexture" : {
                    "index" : 0,
                    "texCoord" : 0
                },
                "metallicFactor" : 0,
                "roughnessFactor" : 0.4000000059604645
            }
        }
    ],
    "meshes" : [
        {
            "name" : "Cube",
            "primitives" : [
                {
                    "attributes" : {
                        "POSITION" : 0,
                        "NORMAL" : 1,
                        "TEXCOORD_0" : 2
                    },
                    "indices" : 3,
                    "material" : 0
                }
            ]
        }
    ],
    "textures" : [
        {
            "source" : 0
        }
    ],
    "images" : [
        {
            "bufferView" : 4,
            "mimeType" : "image/png",
            "name" : "watercooler"
        }
    ],
    "accessors" : [
        {
            "bufferView" : 0,
            "componentType" : 5126,
            "count" : 140,
            "max" : [
                0.7183446288108826,
                4.471137523651123,
                0.655762791633606
            ],
            "min" : [
                -0.7183446288108826,
                0.001456618309020996,
                -0.655762791633606
            ],
            "type" : "VEC3"
        },
        {
            "bufferView" : 1,
            "componentType" : 5126,
            "count" : 140,
            "type" : "VEC3"
        },
        {
            "bufferView" : 2,
            "componentType" : 5126,
            "count" : 140,
            "type" : "VEC2"
        },
        {
            "bufferView" : 3,
            "componentType" : 5123,
            "count" : 222,
            "type" : "SCALAR"
        }
    ],
    "bufferViews" : [
        {
            "buffer" : 0,
            "byteLength" : 1680,
            "byteOffset" : 0
        },
        {
            "buffer" : 0,
            "byteLength" : 1680,
            "byteOffset" : 1680
        },
        {
            "buffer" : 0,
            "byteLength" : 1120,
            "byteOffset" : 3360
        },
        {
            "buffer" : 0,
            "byteLength" : 444,
            "byteOffset" : 4480
        },
        {
            "buffer" : 0,
            "byteLength" : 126254,
            "byteOffset" : 4924
        }
    ],
    "buffers" : [
        {
            "byteLength" : 131180,
            "uri" : "data:application/octet-stream;base64,"
        }
    ]
}
