{
    "asset" : {
        "generator" : "Khronos glTF Blender I/O v1.3.48",
        "version" : "2.0"
    },
    "scene" : 0,
    "scenes" : [
        {
            "name" : "Scene",
            "nodes" : [
                0
            ]
        }
    ],
    "nodes" : [
        {
            "mesh" : 0,
            "name" : "Cube"
        }
    ],
    "materials" : [
        {
            "doubleSided" : true,
            "emissiveFactor" : [
                0,
                0,
                0
            ],
            "name" : "wood",
            "pbrMetallicRoughness" : {
                "baseColorTexture" : {
                    "index" : 0,
                    "texCoord" : 0
                },
                "metallicFactor" : 0,
                "roughnessFactor" : 0.4000000059604645
            }
        }
    ],
    "meshes" : [
        {
            "name" : "Cube",
            "primitives" : [
                {
                    "attributes" : {
                        "POSITION" : 0,
                        "NORMAL" : 1,
                        "TEXCOORD_0" : 2
                    },
                    "indices" : 3,
                    "material" : 0
                }
            ]
        }
    ],
    "textures" : [
        {
            "source" : 0
        }
    ],
    "images" : [
        {
            "bufferView" : 4,
            "mimeType" : "image/png",
            "name" : "gunstuff"
        }
    ],
    "accessors" : [
        {
            "bufferView" : 0,
            "componentType" : 5126,
            "count" : 1375,
            "max" : [
                0.6451694965362549,
                6.116630554199219,
                5.207622051239014
            ],
            "min" : [
                -0.6451694965362549,
                -0.1406724601984024,
                -1.379112958908081
            ],
            "type" : "VEC3"
        },
        {
            "bufferView" : 1,
            "componentType" : 5126,
            "count" : 1375,
            "type" : "VEC3"
        },
        {
            "bufferView" : 2,
            "componentType" : 5126,
            "count" : 1375,
            "type" : "VEC2"
        },
        {
            "bufferView" : 3,
            "componentType" : 5123,
            "count" : 2124,
            "type" : "SCALAR"
        }
    ],
    "bufferViews" : [
        {
            "buffer" : 0,
            "byteLength" : 16500,
            "byteOffset" : 0
        },
        {
            "buffer" : 0,
            "byteLength" : 16500,
            "byteOffset" : 16500
        },
        {
            "buffer" : 0,
            "byteLength" : 11000,
            "byteOffset" : 33000
        },
        {
            "buffer" : 0,
            "byteLength" : 4248,
            "byteOffset" : 44000
        },
        {
            "buffer" : 0,
            "byteLength" : 294394,
            "byteOffset" : 48248
        }
    ],
    "buffers" : [
        {
            "byteLength" : 342644,
            "uri" : "data:application/octet-stream;base64,"
        }
    ]
}
