{
    "asset" : {
        "generator" : "Khronos glTF Blender I/O v1.3.48",
        "version" : "2.0"
    },
    "scene" : 0,
    "scenes" : [
        {
            "name" : "Scene",
            "nodes" : [
                0
            ]
        }
    ],
    "nodes" : [
        {
            "mesh" : 0,
            "name" : "Cube",
            "scale" : [
                0.4134141206741333,
                0.4134141206741333,
                0.4134141206741333
            ]
        }
    ],
    "materials" : [
        {
            "doubleSided" : true,
            "emissiveFactor" : [
                0,
                0,
                0
            ],
            "name" : "bobochair",
            "pbrMetallicRoughness" : {
                "baseColorTexture" : {
                    "index" : 0,
                    "texCoord" : 0
                },
                "metallicFactor" : 0,
                "roughnessFactor" : 0.4000000059604645
            }
        }
    ],
    "meshes" : [
        {
            "name" : "Cube",
            "primitives" : [
                {
                    "attributes" : {
                        "POSITION" : 0,
                        "NORMAL" : 1,
                        "TEXCOORD_0" : 2
                    },
                    "indices" : 3,
                    "material" : 0
                }
            ]
        }
    ],
    "textures" : [
        {
            "source" : 0
        }
    ],
    "images" : [
        {
            "bufferView" : 4,
            "mimeType" : "image/png",
            "name" : "chairnscreen"
        }
    ],
    "accessors" : [
        {
            "bufferView" : 0,
            "componentType" : 5126,
            "count" : 415,
            "max" : [
                2.6258063316345215,
                8.275045394897461,
                2.9602293968200684
            ],
            "min" : [
                -2.6258063316345215,
                -0.012313127517700195,
                -2.7234177589416504
            ],
            "type" : "VEC3"
        },
        {
            "bufferView" : 1,
            "componentType" : 5126,
            "count" : 415,
            "type" : "VEC3"
        },
        {
            "bufferView" : 2,
            "componentType" : 5126,
            "count" : 415,
            "type" : "VEC2"
        },
        {
            "bufferView" : 3,
            "componentType" : 5123,
            "count" : 786,
            "type" : "SCALAR"
        }
    ],
    "bufferViews" : [
        {
            "buffer" : 0,
            "byteLength" : 4980,
            "byteOffset" : 0
        },
        {
            "buffer" : 0,
            "byteLength" : 4980,
            "byteOffset" : 4980
        },
        {
            "buffer" : 0,
            "byteLength" : 3320,
            "byteOffset" : 9960
        },
        {
            "buffer" : 0,
            "byteLength" : 1572,
            "byteOffset" : 13280
        },
        {
            "buffer" : 0,
            "byteLength" : 428607,
            "byteOffset" : 14852
        }
    ],
    "buffers" : [
        {
            "byteLength" : 443460,
            "uri" : "data:application/octet-stream;base64,"
        }
    ]
}
