{
    "asset" : {
        "generator" : "Khronos glTF Blender I/O v1.3.48",
        "version" : "2.0"
    },
    "scene" : 0,
    "scenes" : [
        {
            "name" : "Scene",
            "nodes" : [
                0
            ]
        }
    ],
    "nodes" : [
        {
            "mesh" : 0,
            "name" : "Icosphere",
            "rotation" : [
                0,
                0.15279194712638855,
                0,
                0.9882584810256958
            ],
            "scale" : [
                1,
                1.5016859769821167,
                1
            ],
            "translation" : [
                0,
                14.000078201293945,
                0.9277640581130981
            ]
        }
    ],
    "materials" : [
        {
            "doubleSided" : true,
            "emissiveFactor" : [
                0,
                0,
                0
            ],
            "name" : "hubgate",
            "pbrMetallicRoughness" : {
                "baseColorTexture" : {
                    "index" : 0,
                    "texCoord" : 0
                },
                "metallicFactor" : 0,
                "roughnessFactor" : 0.4000000059604645
            }
        }
    ],
    "meshes" : [
        {
            "name" : "Icosphere",
            "primitives" : [
                {
                    "attributes" : {
                        "POSITION" : 0,
                        "NORMAL" : 1,
                        "TEXCOORD_0" : 2
                    },
                    "indices" : 3,
                    "material" : 0
                }
            ]
        }
    ],
    "textures" : [
        {
            "source" : 0
        }
    ],
    "images" : [
        {
            "bufferView" : 4,
            "mimeType" : "image/png",
            "name" : "hubgates"
        }
    ],
    "accessors" : [
        {
            "bufferView" : 0,
            "componentType" : 5126,
            "count" : 2373,
            "max" : [
                6.938539981842041,
                8.460029602050781,
                2.4049909114837646
            ],
            "min" : [
                -6.158020973205566,
                -9.424359321594238,
                -4.476593971252441
            ],
            "type" : "VEC3"
        },
        {
            "bufferView" : 1,
            "componentType" : 5126,
            "count" : 2373,
            "type" : "VEC3"
        },
        {
            "bufferView" : 2,
            "componentType" : 5126,
            "count" : 2373,
            "type" : "VEC2"
        },
        {
            "bufferView" : 3,
            "componentType" : 5123,
            "count" : 3522,
            "type" : "SCALAR"
        }
    ],
    "bufferViews" : [
        {
            "buffer" : 0,
            "byteLength" : 28476,
            "byteOffset" : 0
        },
        {
            "buffer" : 0,
            "byteLength" : 28476,
            "byteOffset" : 28476
        },
        {
            "buffer" : 0,
            "byteLength" : 18984,
            "byteOffset" : 56952
        },
        {
            "buffer" : 0,
            "byteLength" : 7044,
            "byteOffset" : 75936
        },
        {
            "buffer" : 0,
            "byteLength" : 476983,
            "byteOffset" : 82980
        }
    ],
    "buffers" : [
        {
            "byteLength" : 559964,
            "uri" : "data:application/octet-stream;base64,"
        }
    ]
}
