{
    "asset" : {
        "generator" : "Khronos glTF Blender I/O v1.3.48",
        "version" : "2.0"
    },
    "scene" : 0,
    "scenes" : [
        {
            "name" : "Scene",
            "nodes" : [
                0
            ]
        }
    ],
    "nodes" : [
        {
            "mesh" : 0,
            "name" : "Cube",
            "translation" : [
                0,
                3.9848244190216064,
                0
            ]
        }
    ],
    "materials" : [
        {
            "doubleSided" : true,
            "emissiveFactor" : [
                0,
                0,
                0
            ],
            "name" : "hubroof",
            "pbrMetallicRoughness" : {
                "baseColorTexture" : {
                    "index" : 0,
                    "texCoord" : 0
                },
                "metallicFactor" : 0,
                "roughnessFactor" : 0.4000000059604645
            }
        }
    ],
    "meshes" : [
        {
            "name" : "Cube",
            "primitives" : [
                {
                    "attributes" : {
                        "POSITION" : 0,
                        "NORMAL" : 1,
                        "TEXCOORD_0" : 2
                    },
                    "indices" : 3,
                    "material" : 0
                }
            ]
        }
    ],
    "textures" : [
        {
            "source" : 0
        }
    ],
    "images" : [
        {
            "bufferView" : 4,
            "mimeType" : "image/png",
            "name" : "hubroof"
        }
    ],
    "accessors" : [
        {
            "bufferView" : 0,
            "componentType" : 5126,
            "count" : 623,
            "max" : [
                4.5329670906066895,
                3.388366460800171,
                13.08489990234375
            ],
            "min" : [
                -4.5329670906066895,
                -2.1568541526794434,
                -2.775632858276367
            ],
            "type" : "VEC3"
        },
        {
            "bufferView" : 1,
            "componentType" : 5126,
            "count" : 623,
            "type" : "VEC3"
        },
        {
            "bufferView" : 2,
            "componentType" : 5126,
            "count" : 623,
            "type" : "VEC2"
        },
        {
            "bufferView" : 3,
            "componentType" : 5123,
            "count" : 1044,
            "type" : "SCALAR"
        }
    ],
    "bufferViews" : [
        {
            "buffer" : 0,
            "byteLength" : 7476,
            "byteOffset" : 0
        },
        {
            "buffer" : 0,
            "byteLength" : 7476,
            "byteOffset" : 7476
        },
        {
            "buffer" : 0,
            "byteLength" : 4984,
            "byteOffset" : 14952
        },
        {
            "buffer" : 0,
            "byteLength" : 2088,
            "byteOffset" : 19936
        },
        {
            "buffer" : 0,
            "byteLength" : 337880,
            "byteOffset" : 22024
        }
    ],
    "buffers" : [
        {
            "byteLength" : 359904,
            "uri" : "data:application/octet-stream;base64,"
        }
    ]
}
