{
    "asset" : {
        "generator" : "Khronos glTF Blender I/O v1.3.48",
        "version" : "2.0"
    },
    "scene" : 0,
    "scenes" : [
        {
            "name" : "Scene",
            "nodes" : [
                3
            ]
        }
    ],
    "nodes" : [
        {
            "name" : "brain",
            "rotation" : [
                0.5058626532554626,
                1.0283155660317789e-07,
                6.030349908314747e-08,
                0.8626140356063843
            ],
            "scale" : [
                1,
                0.9999999403953552,
                0.9999996423721313
            ],
            "translation" : [
                -1.788597736037496e-15,
                -0.055129051208496094,
                -0.08663137257099152
            ]
        },
        {
            "name" : "gun",
            "rotation" : [
                0.4875055253505707,
                1.0408402317807486e-07,
                5.811518732912191e-08,
                0.8731199502944946
            ],
            "scale" : [
                1,
                1.0000001192092896,
                1.0000003576278687
            ],
            "translation" : [
                -3.916951663344802e-16,
                -1.764129877090454,
                -1.6381202936172485
            ]
        },
        {
            "mesh" : 0,
            "name" : "Cube",
            "skin" : 0
        },
        {
            "children" : [
                2,
                0,
                1
            ],
            "name" : "Armature",
            "translation" : [
                0,
                2.118530750274658,
                0.3071475625038147
            ]
        }
    ],
    "animations" : [
        {
            "channels" : [
                {
                    "sampler" : 0,
                    "target" : {
                        "node" : 0,
                        "path" : "translation"
                    }
                },
                {
                    "sampler" : 1,
                    "target" : {
                        "node" : 0,
                        "path" : "rotation"
                    }
                },
                {
                    "sampler" : 2,
                    "target" : {
                        "node" : 0,
                        "path" : "scale"
                    }
                },
                {
                    "sampler" : 3,
                    "target" : {
                        "node" : 1,
                        "path" : "translation"
                    }
                },
                {
                    "sampler" : 4,
                    "target" : {
                        "node" : 1,
                        "path" : "rotation"
                    }
                },
                {
                    "sampler" : 5,
                    "target" : {
                        "node" : 1,
                        "path" : "scale"
                    }
                }
            ],
            "name" : "idle",
            "samplers" : [
                {
                    "input" : 13,
                    "interpolation" : "LINEAR",
                    "output" : 14
                },
                {
                    "input" : 13,
                    "interpolation" : "LINEAR",
                    "output" : 15
                },
                {
                    "input" : 13,
                    "interpolation" : "LINEAR",
                    "output" : 16
                },
                {
                    "input" : 13,
                    "interpolation" : "LINEAR",
                    "output" : 17
                },
                {
                    "input" : 13,
                    "interpolation" : "LINEAR",
                    "output" : 18
                },
                {
                    "input" : 13,
                    "interpolation" : "LINEAR",
                    "output" : 19
                }
            ]
        }
    ],
    "materials" : [
        {
            "doubleSided" : true,
            "emissiveFactor" : [
                0,
                0,
                0
            ],
            "name" : "gunstuff",
            "pbrMetallicRoughness" : {
                "baseColorTexture" : {
                    "index" : 0,
                    "texCoord" : 0
                },
                "metallicFactor" : 0,
                "roughnessFactor" : 0.4000000059604645
            }
        },
        {
            "doubleSided" : true,
            "emissiveFactor" : [
                0,
                0,
                0
            ],
            "name" : "brain",
            "pbrMetallicRoughness" : {
                "baseColorTexture" : {
                    "index" : 1,
                    "texCoord" : 0
                },
                "metallicFactor" : 0,
                "roughnessFactor" : 0.4000000059604645
            }
        }
    ],
    "meshes" : [
        {
            "name" : "Cube",
            "primitives" : [
                {
                    "attributes" : {
                        "POSITION" : 0,
                        "NORMAL" : 1,
                        "TEXCOORD_0" : 2,
                        "JOINTS_0" : 3,
                        "WEIGHTS_0" : 4
                    },
                    "indices" : 5,
                    "material" : 0
                },
                {
                    "attributes" : {
                        "POSITION" : 6,
                        "NORMAL" : 7,
                        "TEXCOORD_0" : 8,
                        "JOINTS_0" : 9,
                        "WEIGHTS_0" : 10
                    },
                    "indices" : 11,
                    "material" : 1
                }
            ]
        }
    ],
    "textures" : [
        {
            "source" : 0
        },
        {
            "source" : 1
        }
    ],
    "images" : [
        {
            "bufferView" : 6,
            "mimeType" : "image/png",
            "name" : "guntext"
        },
        {
            "bufferView" : 13,
            "mimeType" : "image/png",
            "name" : "brain"
        }
    ],
    "skins" : [
        {
            "inverseBindMatrices" : 12,
            "joints" : [
                0,
                1
            ],
            "name" : "Armature"
        }
    ],
    "accessors" : [
        {
            "bufferView" : 0,
            "componentType" : 5126,
            "count" : 768,
            "max" : [
                1.0679265260696411,
                3.0406317710876465,
                4.800853252410889
            ],
            "min" : [
                -1.0679265260696411,
                0.01878499984741211,
                -1.8108701705932617
            ],
            "type" : "VEC3"
        },
        {
            "bufferView" : 1,
            "componentType" : 5126,
            "count" : 768,
            "type" : "VEC3"
        },
        {
            "bufferView" : 2,
            "componentType" : 5126,
            "count" : 768,
            "type" : "VEC2"
        },
        {
            "bufferView" : 3,
            "componentType" : 5123,
            "count" : 768,
            "type" : "VEC4"
        },
        {
            "bufferView" : 4,
            "componentType" : 5126,
            "count" : 768,
            "type" : "VEC4"
        },
        {
            "bufferView" : 5,
            "componentType" : 5123,
            "count" : 1254,
            "type" : "SCALAR"
        },
        {
            "bufferView" : 7,
            "componentType" : 5126,
            "count" : 649,
            "max" : [
                0.7843369841575623,
                3.049819231033325,
                1.5765297412872314
            ],
            "min" : [
                -0.7843369841575623,
                1.7096095085144043,
                -0.39923232793807983
            ],
            "type" : "VEC3"
        },
        {
            "bufferView" : 8,
            "componentType" : 5126,
            "count" : 649,
            "type" : "VEC3"
        },
        {
            "bufferView" : 9,
            "componentType" : 5126,
            "count" : 649,
            "type" : "VEC2"
        },
        {
            "bufferView" : 10,
            "componentType" : 5123,
            "count" : 649,
            "type" : "VEC4"
        },
        {
            "bufferView" : 11,
            "componentType" : 5126,
            "count" : 649,
            "type" : "VEC4"
        },
        {
            "bufferView" : 12,
            "componentType" : 5123,
            "count" : 942,
            "type" : "SCALAR"
        },
        {
            "bufferView" : 14,
            "componentType" : 5126,
            "count" : 2,
            "type" : "MAT4"
        },
        {
            "bufferView" : 15,
            "componentType" : 5126,
            "count" : 32,
            "max" : [
                1.3333333333333333
            ],
            "min" : [
                0.041666666666666664
            ],
            "type" : "SCALAR"
        },
        {
            "bufferView" : 16,
            "componentType" : 5126,
            "count" : 32,
            "type" : "VEC3"
        },
        {
            "bufferView" : 17,
            "componentType" : 5126,
            "count" : 32,
            "type" : "VEC4"
        },
        {
            "bufferView" : 18,
            "componentType" : 5126,
            "count" : 32,
            "type" : "VEC3"
        },
        {
            "bufferView" : 19,
            "componentType" : 5126,
            "count" : 32,
            "type" : "VEC3"
        },
        {
            "bufferView" : 20,
            "componentType" : 5126,
            "count" : 32,
            "type" : "VEC4"
        },
        {
            "bufferView" : 21,
            "componentType" : 5126,
            "count" : 32,
            "type" : "VEC3"
        }
    ],
    "bufferViews" : [
        {
            "buffer" : 0,
            "byteLength" : 9216,
            "byteOffset" : 0
        },
        {
            "buffer" : 0,
            "byteLength" : 9216,
            "byteOffset" : 9216
        },
        {
            "buffer" : 0,
            "byteLength" : 6144,
            "byteOffset" : 18432
        },
        {
            "buffer" : 0,
            "byteLength" : 6144,
            "byteOffset" : 24576
        },
        {
            "buffer" : 0,
            "byteLength" : 12288,
            "byteOffset" : 30720
        },
        {
            "buffer" : 0,
            "byteLength" : 2508,
            "byteOffset" : 43008
        },
        {
            "buffer" : 0,
            "byteLength" : 483426,
            "byteOffset" : 45516
        },
        {
            "buffer" : 0,
            "byteLength" : 7788,
            "byteOffset" : 528944
        },
        {
            "buffer" : 0,
            "byteLength" : 7788,
            "byteOffset" : 536732
        },
        {
            "buffer" : 0,
            "byteLength" : 5192,
            "byteOffset" : 544520
        },
        {
            "buffer" : 0,
            "byteLength" : 5192,
            "byteOffset" : 549712
        },
        {
            "buffer" : 0,
            "byteLength" : 10384,
            "byteOffset" : 554904
        },
        {
            "buffer" : 0,
            "byteLength" : 1884,
            "byteOffset" : 565288
        },
        {
            "buffer" : 0,
            "byteLength" : 142038,
            "byteOffset" : 567172
        },
        {
            "buffer" : 0,
            "byteLength" : 128,
            "byteOffset" : 709212
        },
        {
            "buffer" : 0,
            "byteLength" : 128,
            "byteOffset" : 709340
        },
        {
            "buffer" : 0,
            "byteLength" : 384,
            "byteOffset" : 709468
        },
        {
            "buffer" : 0,
            "byteLength" : 512,
            "byteOffset" : 709852
        },
        {
            "buffer" : 0,
            "byteLength" : 384,
            "byteOffset" : 710364
        },
        {
            "buffer" : 0,
            "byteLength" : 384,
            "byteOffset" : 710748
        },
        {
            "buffer" : 0,
            "byteLength" : 512,
            "byteOffset" : 711132
        },
        {
            "buffer" : 0,
            "byteLength" : 384,
            "byteOffset" : 711644
        }
    ],
    "buffers" : [
        {
            "byteLength" : 712028,
            "uri" : "data:application/octet-stream;base64,"
        }
    ]
}
