{
    "asset" : {
        "generator" : "Khronos glTF Blender I/O v1.3.48",
        "version" : "2.0"
    },
    "scene" : 0,
    "scenes" : [
        {
            "name" : "Scene",
            "nodes" : [
                0
            ]
        }
    ],
    "nodes" : [
        {
            "mesh" : 0,
            "name" : "Cube"
        }
    ],
    "materials" : [
        {
            "doubleSided" : true,
            "emissiveFactor" : [
                0,
                0,
                0
            ],
            "name" : "aktext",
            "pbrMetallicRoughness" : {
                "baseColorTexture" : {
                    "index" : 0,
                    "texCoord" : 0
                },
                "metallicFactor" : 0,
                "roughnessFactor" : 0.4000000059604645
            }
        }
    ],
    "meshes" : [
        {
            "name" : "Cube",
            "primitives" : [
                {
                    "attributes" : {
                        "POSITION" : 0,
                        "NORMAL" : 1,
                        "TEXCOORD_0" : 2
                    },
                    "indices" : 3,
                    "material" : 0
                }
            ]
        }
    ],
    "textures" : [
        {
            "source" : 0
        }
    ],
    "images" : [
        {
            "bufferView" : 4,
            "mimeType" : "image/png",
            "name" : "aktext"
        }
    ],
    "accessors" : [
        {
            "bufferView" : 0,
            "componentType" : 5126,
            "count" : 2353,
            "max" : [
                0.2069324404001236,
                0.5923949480056763,
                4.513646125793457
            ],
            "min" : [
                -0.2069324404001236,
                -0.5489800572395325,
                -0.1286187767982483
            ],
            "type" : "VEC3"
        },
        {
            "bufferView" : 1,
            "componentType" : 5126,
            "count" : 2353,
            "type" : "VEC3"
        },
        {
            "bufferView" : 2,
            "componentType" : 5126,
            "count" : 2353,
            "type" : "VEC2"
        },
        {
            "bufferView" : 3,
            "componentType" : 5123,
            "count" : 4428,
            "type" : "SCALAR"
        }
    ],
    "bufferViews" : [
        {
            "buffer" : 0,
            "byteLength" : 28236,
            "byteOffset" : 0
        },
        {
            "buffer" : 0,
            "byteLength" : 28236,
            "byteOffset" : 28236
        },
        {
            "buffer" : 0,
            "byteLength" : 18824,
            "byteOffset" : 56472
        },
        {
            "buffer" : 0,
            "byteLength" : 8856,
            "byteOffset" : 75296
        },
        {
            "buffer" : 0,
            "byteLength" : 365662,
            "byteOffset" : 84152
        }
    ],
    "buffers" : [
        {
            "byteLength" : 449816,
            "uri" : "data:application/octet-stream;base64,"
        }
    ]
}
